<?xml version="1.0" encoding="utf-8"?>
<!-- Generator: Adobe Illustrator 27.8.1, SVG Export Plug-In . SVG Version: 6.00 Build 0)  -->
<svg version="1.1" id="Layer_1" xmlns="http://www.w3.org/2000/svg" xmlns:xlink="http://www.w3.org/1999/xlink" x="0px" y="0px"
	 viewBox="0 0 500 89" style="enable-background:new 0 0 500 89;" xml:space="preserve">
<style type="text/css">
	.st0{fill:#97D28B;}
	.st1{fill:#FFFFFF;}
</style>
<g>
	<path class="st0" d="M85.89,51.77c-0.14,0.33-0.21,0.56-0.33,0.75c-2.51,4.19-5.02,8.37-7.54,12.56c-0.41,0.69-0.86,0.76-1.63,0.29
		c-15.17-9.11-30.34-18.23-45.51-27.34c-4.94-2.97-9.88-5.94-14.81-8.9c-0.87-0.53-0.96-0.89-0.44-1.76c2.46-4.1,4.93-8.2,7.4-12.31
		c0.47-0.78,0.86-0.88,1.64-0.42c18.35,11.03,36.7,22.05,55.05,33.08c1.82,1.1,3.66,2.18,5.47,3.3
		C85.47,51.2,85.66,51.52,85.89,51.77z"/>
	<path class="st1" d="M419.04,35.47c-1.72-1.14-3.39-2.26-5.09-3.39c-0.64,0.45-1.34,0.71-2.14,0.54c-1.32-0.29-2.17-1.58-1.88-2.87
		c0.3-1.33,1.58-2.17,2.87-1.88c1.35,0.3,2.19,1.59,1.85,2.93c-0.1,0.41-0.01,0.59,0.32,0.8c1.54,1,3.06,2.02,4.62,3.05
		c0.89-1.33,1.76-2.62,2.63-3.92c0.94-1.41,1.88-2.83,2.83-4.24c1.26-1.86,3.17-2.23,5.03-0.99c2.6,1.73,5.2,3.47,7.85,5.24
		c0.15-0.22,0.3-0.42,0.42-0.64c1.62-2.74,4.04-3.88,7.17-3.73c2.42,0.12,4.36,1.08,5.67,3.12c2.25,3.5,4.45,7.04,6.65,10.56
		c5.6,8.94,11.19,17.89,16.78,26.83c0.11,0.18,0.21,0.36,0.35,0.61c-0.24,0.02-0.4,0.04-0.57,0.04c-3.09,0-6.18-0.01-9.27,0.01
		c-0.4,0-0.63-0.12-0.85-0.46c-1.75-2.8-3.52-5.59-5.27-8.39c-0.2-0.32-0.42-0.44-0.8-0.44c-8.92,0.01-17.84,0.01-26.75,0
		c-0.44,0-0.66,0.16-0.87,0.51c-1.69,2.77-3.4,5.52-5.1,8.28c-0.16,0.27-0.3,0.5-0.7,0.49c-3.17-0.02-6.34-0.01-9.5-0.01
		c-0.11,0-0.22-0.02-0.44-0.05c2.66-4.24,5.28-8.41,7.92-12.61c-1.17-0.78-2.3-1.55-3.44-2.31c-1.71-1.14-3.41-2.28-5.12-3.42
		c-1.8-1.21-2.19-3.18-0.98-4.99C415.16,41.28,417.08,38.4,419.04,35.47z M437.41,31.61c-0.17-0.13-0.29-0.23-0.42-0.31
		c-2.5-1.67-5-3.35-7.5-5.02c-1.35-0.9-2.7-0.63-3.6,0.71c-3.94,5.89-7.88,11.78-11.82,17.68c-0.95,1.42-0.67,2.76,0.77,3.72
		c2.11,1.41,4.22,2.82,6.33,4.23c0.7,0.46,1.39,0.93,2.13,1.43C428.01,46.56,432.69,39.11,437.41,31.61z M454.55,51.35
		c-3.26-5.32-6.47-10.54-9.71-15.83c-3.26,5.32-6.46,10.54-9.71,15.83C441.63,51.35,448.02,51.35,454.55,51.35z M413.75,30.25
		c0-0.8-0.65-1.45-1.45-1.45c-0.79,0-1.46,0.66-1.46,1.45c0,0.78,0.67,1.45,1.46,1.46C413.1,31.7,413.75,31.05,413.75,30.25z"/>
	<path class="st1" d="M95.56,67.54c0-2.55,0-5.04,0-7.6c0.27,0,0.52,0,0.77,0c9.66,0,19.32,0,28.98,0c0.72,0,1.45-0.04,2.17-0.08
		c2.14-0.13,3.05-0.98,3.19-3.11c0.07-1.07,0.02-2.15-0.07-3.22c-0.1-1.18-0.75-2.04-1.91-2.33c-0.92-0.22-1.89-0.34-2.83-0.35
		c-6.55-0.03-13.1,0.03-19.65-0.05c-1.68-0.02-3.39-0.28-5.03-0.69c-2.85-0.71-4.65-2.6-5.18-5.51c-0.64-3.53-0.64-7.09,0.08-10.6
		c0.77-3.73,3.21-5.79,6.89-6.4c1.32-0.22,2.68-0.33,4.02-0.35c3.93-0.04,7.86-0.02,11.79-0.02c0.21,0,0.43,0,0.69,0
		c0,2.54,0,5.05,0,7.65c-0.22,0-0.44,0-0.67,0c-3.64,0-7.27,0-10.91,0c-0.47,0-0.94,0.04-1.4,0.1c-1.44,0.2-2.31,0.93-2.49,2.39
		c-0.16,1.29-0.19,2.62-0.06,3.91c0.15,1.48,1.19,2.22,2.97,2.35c0.33,0.02,0.66,0.02,1,0.02c6.45,0,12.91-0.02,19.36,0.01
		c2.11,0.01,4.21,0.22,6.23,0.92c2.88,1,4.62,3.02,5.11,6.01c0.54,3.32,0.54,6.67-0.01,9.98c-0.61,3.65-2.95,5.72-6.5,6.43
		c-1.56,0.31-3.17,0.5-4.76,0.5c-10.36,0.04-20.73,0.02-31.09,0.02C96.02,67.54,95.81,67.54,95.56,67.54z"/>
	<path class="st1" d="M386.29,56.92c0-7.14,0-14.21,0-21.33c2.87,0,5.69,0,8.6,0c0,0.2,0,0.41,0,0.62c0,10.17,0.01,20.34-0.01,30.51
		c0,1.2-0.11,2.42-0.33,3.61c-0.64,3.51-2.84,5.57-6.25,6.31c-1.36,0.3-2.78,0.46-4.18,0.48c-4.24,0.06-8.49,0.02-12.73,0.02
		c-0.21,0-0.42,0-0.66,0c0-2.41,0-4.76,0-7.21c0.24,0,0.46,0,0.69,0c3.7,0,7.39,0,11.09,0c0.47,0,0.94-0.03,1.4-0.09
		c1.34-0.17,2.06-0.87,2.29-2.2c0.06-0.36,0.09-0.74,0.1-1.11c0.01-0.86,0-1.71,0-2.63c-0.29,0-0.51,0-0.74,0
		c-7.02,0-14.04,0.02-21.06-0.03c-2.33-0.02-4.63-0.42-6.75-1.49c-2.66-1.34-4.04-3.6-4.53-6.46c-0.17-1-0.26-2.02-0.27-3.03
		c-0.03-5.57-0.01-11.15-0.01-16.72c0-0.17,0-0.35,0-0.57c2.9,0,5.76,0,8.7,0c0,0.26,0,0.51,0,0.76c0,5.26-0.01,10.52,0.01,15.78
		c0,0.77,0.09,1.57,0.29,2.31c0.39,1.47,1.52,2.11,2.93,2.34c0.52,0.09,1.05,0.13,1.58,0.13c6.45,0.01,12.91,0.01,19.36,0.01
		C385.93,56.92,386.07,56.92,386.29,56.92z"/>
	<path class="st1" d="M178.5,47.65c0.03-1.25,0.02-2.42-0.4-3.54c-0.54-1.42-1.69-1.99-3.09-2.17c-0.73-0.09-1.48-0.13-2.22-0.13
		c-2.58-0.02-5.16-0.01-7.74-0.01c-0.21,0-0.43,0-0.69,0c0-2.09,0-4.15,0-6.27c0.22,0,0.41,0,0.61,0c3.23,0.01,6.45-0.01,9.68,0.03
		c2.14,0.03,4.24,0.33,6.27,1.05c3.54,1.25,5.55,3.78,6.14,7.45c0.17,1.04,0.25,2.1,0.26,3.15c0.02,3.24,0.06,6.49-0.06,9.73
		c-0.05,1.45-0.31,2.92-0.72,4.31c-0.84,2.92-2.95,4.6-5.8,5.42c-2.27,0.66-4.61,0.85-6.96,0.86c-6.37,0.01-12.75,0.01-19.12,0
		c-2,0-3.98-0.21-5.89-0.84c-2.9-0.95-4.72-2.87-4.92-5.96c-0.15-2.29-0.17-4.62,0.06-6.9c0.31-3.09,2.3-4.9,5.24-5.56
		c1.63-0.37,3.32-0.59,4.98-0.6c7.86-0.06,15.72-0.03,23.58-0.03C177.96,47.65,178.19,47.65,178.5,47.65z M178.64,53.09
		c-0.38,0-0.53,0-0.69,0c-7.41,0-14.82,0-22.23,0c-0.31,0-0.62,0.04-0.93,0.09c-1.35,0.22-2.09,0.93-2.2,2.27
		c-0.1,1.13-0.13,2.27-0.07,3.39c0.08,1.51,0.84,2.29,2.34,2.56c0.42,0.07,0.85,0.11,1.28,0.11c5.57,0.01,11.15,0.01,16.72,0
		c0.66,0,1.33-0.05,1.99-0.13c1.87-0.24,3.08-1.17,3.37-2.91C178.49,56.72,178.5,54.94,178.64,53.09z"/>
	<path class="st1" d="M235.29,67.51c-2.95,0-5.84,0-8.83,0c0-0.22,0-0.45,0-0.67c0-5.89,0.01-11.77-0.01-17.66
		c0-0.74-0.08-1.49-0.21-2.21c-0.38-2.15-1.47-3.24-3.6-3.6c-0.86-0.15-1.75-0.23-2.62-0.24c-3.64-0.03-7.27-0.03-10.91,0
		c-0.88,0.01-1.76,0.09-2.62,0.24c-2.2,0.38-3.38,1.63-3.69,3.87c-0.11,0.81-0.16,1.63-0.16,2.45c-0.01,5.69-0.01,11.38-0.01,17.07
		c0,0.23,0,0.46,0,0.73c-2.95,0-5.83,0-8.79,0c-0.01-0.19-0.03-0.4-0.03-0.6c0-5.98-0.04-11.97,0.02-17.95
		c0.02-1.69,0.19-3.4,0.49-5.06c0.75-4.16,3.31-6.63,7.38-7.61c2.14-0.52,4.32-0.72,6.51-0.72c4.65-0.01,9.31-0.06,13.96,0.07
		c1.88,0.05,3.78,0.36,5.61,0.8c3.95,0.95,6.29,3.56,7.01,7.54c0.28,1.57,0.46,3.18,0.47,4.77c0.05,6.02,0.02,12.05,0.02,18.07
		C235.29,67.02,235.29,67.25,235.29,67.51z"/>
	<path class="st1" d="M280.29,35.54c0,2.55,0,5.02,0,7.57c-0.27,0-0.52,0-0.77,0c-7.53,0-15.06-0.01-22.58,0.01
		c-0.99,0-2,0.11-2.96,0.32c-1.94,0.43-2.94,1.53-3.16,3.5c-0.17,1.51-0.2,3.04-0.21,4.56c-0.01,1.46-0.02,2.94,0.18,4.38
		c0.36,2.64,1.68,3.82,4.34,4.07c0.89,0.09,1.79,0.13,2.69,0.13c7.25,0.01,14.51,0.01,21.76,0.01c0.23,0,0.47,0,0.75,0
		c0,2.48,0,4.92,0,7.44c-0.22,0-0.43,0-0.64,0c-7.84,0-15.68,0.01-23.52,0c-2.31,0-4.6-0.22-6.84-0.82
		c-4.07-1.08-6.41-3.72-7.1-7.82c-0.25-1.48-0.39-2.99-0.43-4.48c-0.05-2.44-0.07-4.89,0.09-7.33c0.11-1.62,0.38-3.27,0.86-4.82
		c1.04-3.38,3.59-5.17,6.92-5.99c2.21-0.55,4.47-0.73,6.74-0.73c7.74-0.01,15.49,0,23.23,0C279.83,35.54,280.04,35.54,280.29,35.54z
		"/>
	<path class="st0" d="M42.97,67.94c-9.91,0-19.83,0-29.74,0c-0.16,0-0.33,0.04-0.47-0.01c-0.27-0.1-0.51-0.25-0.76-0.39
		c0.15-0.24,0.24-0.58,0.46-0.71c2.43-1.49,4.88-2.95,7.33-4.42c7.48-4.5,14.97-8.99,22.44-13.51c0.54-0.33,0.94-0.33,1.49,0
		c9.85,5.94,19.72,11.86,29.58,17.79c0.13,0.08,0.31,0.13,0.39,0.25c0.12,0.18,0.28,0.43,0.23,0.59c-0.05,0.17-0.31,0.31-0.51,0.38
		c-0.17,0.06-0.39,0.02-0.58,0.02C62.87,67.94,52.92,67.94,42.97,67.94z"/>
	<path class="st0" d="M57.65,11.88c9.91,0,19.82,0,29.74,0c0.16,0,0.33-0.05,0.47,0.01c0.24,0.1,0.6,0.22,0.65,0.41
		c0.05,0.18-0.16,0.55-0.35,0.67c-1.47,0.92-2.97,1.81-4.46,2.7c-8.47,5.09-16.94,10.18-25.41,15.28c-0.49,0.29-0.84,0.29-1.33,0
		c-9.9-5.97-19.82-11.92-29.73-17.88c-0.3-0.18-0.67-0.33-0.54-0.79c0.13-0.44,0.51-0.41,0.87-0.41
		C37.59,11.88,47.62,11.88,57.65,11.88z"/>
	<path class="st1" d="M329.65,35.56c0-3.06,0-6,0-9c3.01,0,5.97,0,9,0c0,2.96,0,5.93,0,8.96c3.39,0,6.71,0,10.07,0
		c0,2.41,0,4.76,0,7.17c-3.32,0-6.64,0-10.02,0c0,8.29,0,16.53,0,24.81c-3.03,0-5.99,0-9.03,0c0-8.24,0-16.48,0-24.78
		c-1.53,0-2.99,0-4.47,0c0-2.41,0-4.75,0-7.16C326.65,35.56,328.1,35.56,329.65,35.56z"/>
	<path class="st1" d="M288.56,35.55c0-3.06,0-6.01,0-9c3,0,5.95,0,8.98,0c0,2.97,0,5.93,0,8.98c3.39,0,6.72,0,10.08,0
		c0,2.43,0,4.76,0,7.16c-3.33,0-6.64,0-10.04,0c0,8.3,0,16.53,0,24.81c-3.04,0-6,0-9.03,0c0-8.24,0-16.48,0-24.77
		c-1.5,0-2.94,0-4.43,0c0-2.4,0-4.75,0-7.18C285.58,35.55,287.03,35.55,288.56,35.55z"/>
	<path class="st1" d="M488,67.51c-2.98,0-5.94,0-8.94,0c0-13.42,0-26.8,0-40.22c2.98,0,5.94,0,8.94,0C488,40.68,488,54.08,488,67.51
		z"/>
	<path class="st1" d="M311.94,36.39c2.96,0,5.9,0,8.89,0c0,10.37,0,20.72,0,31.11c-2.95,0-5.89,0-8.89,0
		C311.94,57.15,311.94,46.79,311.94,36.39z"/>
	<path class="st1" d="M410.87,62.5c0,0.88,0.01,1.76,0,2.64c-0.03,1.5-0.76,2.31-2.25,2.36c-1.5,0.06-3.01,0.06-4.51,0
		c-1.42-0.06-2.18-0.86-2.2-2.29c-0.03-1.8-0.03-3.6,0-5.39c0.02-1.41,0.63-2.23,2.03-2.34c1.69-0.12,3.4-0.09,5.08,0.04
		c1.22,0.1,1.79,0.88,1.86,2.11c0,0.06,0.01,0.12,0.01,0.18C410.87,60.7,410.87,61.6,410.87,62.5z"/>
	<path class="st0" d="M320.84,29.31c0,0.76,0.04,1.52-0.01,2.28c-0.06,1.11-0.68,1.91-1.78,1.99c-1.74,0.12-3.51,0.13-5.25,0.02
		c-1.23-0.08-1.86-0.89-1.89-2.13c-0.04-1.46-0.04-2.93,0-4.39c0.03-1.18,0.67-1.98,1.85-2.04c1.77-0.1,3.55-0.09,5.31,0.01
		c1.08,0.06,1.7,0.83,1.77,1.93C320.88,27.74,320.84,28.52,320.84,29.31z"/>
	<path class="st0" d="M423.6,48.7c-1.71,0.01-3.06-1.31-3.08-3.02c-0.02-1.76,1.29-3.12,3.01-3.15c1.71-0.03,3.12,1.35,3.14,3.05
		C426.69,47.29,425.31,48.69,423.6,48.7z M422.31,46.37c-0.43,0.01-0.77,0.35-0.77,0.79c0,0.46,0.35,0.8,0.82,0.79
		c0.44-0.01,0.78-0.35,0.78-0.77C423.14,46.73,422.76,46.36,422.31,46.37z"/>
	<path class="st0" d="M433.75,35.05c-0.01,1.72-1.33,3.04-3.05,3.04c-1.73,0-3.11-1.36-3.1-3.07c0-1.71,1.39-3.08,3.11-3.08
		C432.43,31.94,433.76,33.3,433.75,35.05z M430.3,36.47c-0.01-0.44-0.41-0.8-0.85-0.78c-0.42,0.02-0.76,0.39-0.75,0.81
		c0.01,0.46,0.36,0.79,0.84,0.77C429.98,37.25,430.31,36.89,430.3,36.47z"/>
</g>
</svg>
